# xmcd CD database file
#
# Track frame offsets:
#	150
#	24837
#	41862
#
# Disc length: 884 seconds
#
# Revision: 0
# Processed by: cddbd v1.5PL3 Copyright (c) Steve Scherf et al.
# Submitted via: CDex 1.50
#
DISCID=1b037203
DTITLE=のっこ - わすれな草
DYEAR=1998
DGENRE=JPop
TTITLE0=わすれな草
TTITLE1=星のおまつり
TTITLE2=わすれな草(オリジナルカラオケ)
EXTD=YEAR: 1998
EXTT0=
EXTT1=
EXTT2=
PLAYORDER=
